Coordinates
version=1
nRows=14
nColumns=24
inDegrees=yes

Units are S.I. units (second, meters, Newtons, ...)
Angles are in degrees.

endheader
time	pelvis_tilt	pelvis_list	pelvis_rotation	pelvis_tx	pelvis_ty	pelvis_tz	hip_flexion_r	hip_adduction_r	hip_rotation_r	knee_angle_r	ankle_angle_r	subtalar_angle_r	mtp_angle_r	hip_flexion_l	hip_adduction_l	hip_rotation_l	knee_angle_l	ankle_angle_l	subtalar_angle_l	mtp_angle_l	lumbar_extension	lumbar_bending	lumbar_rotation
      4.27000000	    -19.25960590	     -6.04002536	     -1.98147498	     -0.81819020	     -0.02348169	     -0.33580062	     27.22986887	     10.58657999	     -4.70359229	    -23.21232898	      8.50524548	    -13.79995045	     -1.78179618	     34.47095132	     -8.47539449	     -2.85845116	    -62.44909015	     -6.59382698	     -8.18022056	     23.63673238	     21.48228080	      5.17619608	    -11.67146264
      4.27500000	    -19.29726129	     -5.62529621	     -2.13334774	     -0.81187474	     -0.02219360	     -0.33530018	     26.42736519	     10.31357701	     -4.25358116	    -22.54042273	      8.54355834	    -13.71768489	     -2.09236022	     35.11728008	     -8.13898056	     -3.33660639	    -61.79485545	     -5.99820014	     -8.34266169	     23.37301767	     21.48246355	      4.82183230	    -11.24491838
      4.28000000	    -19.33638759	     -5.22904798	     -2.28537886	     -0.80558664	     -0.02098604	     -0.33479223	     25.63486983	     10.04550768	     -3.85768695	    -21.86856936	      8.57917551	    -13.61845108	     -2.38651801	     35.75497047	     -7.83488331	     -3.81855355	    -61.08834523	     -5.44231882	     -8.48317346	     23.06040656	     21.48155854	      4.47497202	    -10.83152963
      4.28500000	    -19.38129398	     -4.83891394	     -2.42004129	     -0.79931570	     -0.01985975	     -0.33432940	     24.85847275	      9.76103937	     -3.49774843	    -21.20175984	      8.61145186	    -13.50263817	     -2.63211200	     36.38777024	     -7.54022217	     -4.30280760	    -60.32591554	     -4.92699634	     -8.59102059	     22.74124862	     21.48761443	      4.13494607	    -10.44323705
      4.29000000	    -19.41685248	     -4.46205383	     -2.56795948	     -0.79307661	     -0.01881388	     -0.33386281	     24.08207782	      9.48290897	     -3.15846207	    -20.54118273	      8.64759522	    -13.36082772	     -2.84713540	     36.99575961	     -7.28104817	     -4.81087758	    -59.51452666	     -4.44540896	     -8.67831425	     22.39902308	     21.47875482	      3.81203263	    -10.04793829
      4.29500000	    -19.42585486	     -4.12240581	     -2.73241146	     -0.78687556	     -0.01784958	     -0.33342201	     23.28273128	      9.23515956	     -2.81434240	    -19.88392356	      8.70215625	    -13.17248663	     -3.06069668	     37.56435719	     -7.08028232	     -5.34122739	    -58.66950696	     -3.97115584	     -8.74860244	     21.97329544	     21.43421852	      3.53771254	     -9.64823089
      4.30000000	    -19.47570607	     -3.77707633	     -2.85192655	     -0.78068829	     -0.01697454	     -0.33300136	     22.54914038	      8.95080763	     -2.61477310	    -19.24190684	      8.71406021	    -13.00295625	     -3.18282213	     38.16681937	     -6.85570179	     -5.82312125	    -57.75504505	     -3.57243833	     -8.72359355	     21.68048664	     21.43770203	      3.22953335	     -9.30164332
      4.30500000	    -19.50251884	     -3.45719262	     -2.99402499	     -0.77453101	     -0.01618340	     -0.33260660	     21.79862261	      8.68821004	     -2.39862094	    -18.60907293	      8.74751897	    -12.78691387	     -3.25302299	     38.72573624	     -6.67802667	     -6.33184750	    -56.79675108	     -3.18372160	     -8.69183405	     21.40144480	     21.41012977	      2.96269680	     -8.94067716
      4.31000000	    -19.55949020	     -3.18063261	     -3.08543149	     -0.76839230	     -0.01554698	     -0.33231183	     21.08173419	      8.44219911	     -2.23000315	    -17.96974287	      8.80701211	    -12.57282944	     -3.27294012	     39.32256839	     -6.51222169	     -6.77344176	    -55.80725399	     -2.82032343	     -8.60207034	     21.21940610	     21.41569386	      2.72563869	     -8.67421575
      4.31500000	    -19.52833144	     -2.88991018	     -3.28733602	     -0.76229439	     -0.01485019	     -0.33186719	     20.30301406	      8.20674104	     -2.07724642	    -17.37988419	      8.81216873	    -12.27838814	     -3.24134259	     39.76700524	     -6.42258031	     -7.34979989	    -54.74341285	     -2.46748111	     -8.48495943	     20.95461300	     21.31030458	      2.50162982	     -8.24208978
      4.32000000	    -19.54317628	     -2.63262246	     -3.41714290	     -0.75620086	     -0.01431280	     -0.33155712	     19.57594449	      7.97246766	     -1.98687378	    -16.78604396	      8.83401355	    -12.01356217	     -3.17204367	     40.26468964	     -6.31648497	     -7.83830215	    -53.64361920	     -2.13581680	     -8.26414968	     20.77308898	     21.25944599	      2.29383739	     -7.91860228
      4.32500000	    -19.61021547	     -2.41425057	     -3.49464073	     -0.75012876	     -0.01396599	     -0.33131337	     18.90505390	      7.76128650	     -1.90955760	    -16.19176244	      8.88721735	    -11.76835976	     -3.10697354	     40.82243670	     -6.21376718	     -8.25340694	    -52.51527446	     -1.81753183	     -8.00365872	     20.68959690	     21.26357547	      2.09814668	     -7.70010118
      4.33000000	    -19.53291811	     -2.17775010	     -3.69693805	     -0.74406846	     -0.01349019	     -0.33099647	     18.10759360	      7.54620187	     -1.82678429	    -15.64115337	      8.90982803	    -11.41323054	     -2.89042211	     41.15284282	     -6.18752431	     -8.84185253	    -51.30230153	     -1.49145875	     -7.71121590	     20.53517675	     21.10195204	      1.94579687	     -7.29638150
      4.33500000	    -19.51696725	     -1.96714401	     -3.82275412	     -0.73802528	     -0.01317783	     -0.33076899	     17.37290992	      7.33400942	     -1.78035434	    -15.07700119	      8.92533393	    -11.12153361	     -2.62561754	     41.55499442	     -6.12880944	     -9.32005103	    -50.05782809	     -1.21816155	     -7.32671802	     20.43099173	     21.00485278	      1.78041833	     -7.01411498
